<svg xmlns="http://www.w3.org/2000/svg" aria-hidden="true" style="position:absolute;width:0;height:0;overflow:hidden">
  <defs>
    <symbol id="icon-facebook" viewBox="0 0 31 32">
      <path d="M17.718 31.214h-5.009c-.837 0-1.517-.665-1.517-1.482V18.699H8.269c-.837 0-1.517-.665-1.517-1.482V12.49c0-.817.681-1.482 1.517-1.482h2.923V8.641c0-2.347.755-4.344 2.183-5.775C14.809 1.429 16.814.669 19.172.669l3.82.006c.835.001 1.515.666 1.515 1.482v4.389c0 .817-.68 1.482-1.517 1.482l-2.572.001c-.784 0-.984.154-1.027.201-.07.078-.154.299-.154.908v1.87h3.56c.268 0 .528.065.751.186.481.263.781.759.781 1.296l-.002 4.727c0 .817-.681 1.481-1.517 1.481h-3.572v11.033c0 .817-.681 1.482-1.518 1.482zm-4.693-1.791h4.376V17.898c0-.546.455-.989 1.013-.989h4.077l.002-4.109h-4.079a1.003 1.003 0 0 1-1.013-.989V9.139c0-.7.073-1.495.614-2.093.653-.723 1.683-.806 2.401-.806l2.256-.001V2.467l-3.503-.006c-3.789 0-6.144 2.369-6.144 6.181v3.169c0 .545-.454.989-1.013.989H8.585v4.109h3.427c.558 0 1.013.444 1.013.989v11.525zm9.962-26.956z"/>
    </symbol>
    <symbol id="icon-inst" viewBox="0 0 31 32">
      <path d="M22.769.747H8.451C3.791.747 0 4.456 0 9.015v14.008c0 4.559 3.791 8.268 8.451 8.268h14.318c4.66 0 8.451-3.709 8.451-8.268V9.015c0-4.559-3.791-8.268-8.451-8.268zm6.62 22.276c0 3.571-2.97 6.477-6.621 6.477H8.45c-3.651 0-6.621-2.906-6.621-6.477V9.015c0-3.572 2.97-6.477 6.621-6.477h14.318c3.65 0 6.62 2.906 6.62 6.477v14.008z"/>
      <path d="M15.61 7.667c-4.707 0-8.536 3.746-8.536 8.352s3.829 8.352 8.536 8.352c4.707 0 8.536-3.746 8.536-8.352s-3.829-8.352-8.536-8.352zm0 14.912c-3.698 0-6.706-2.943-6.706-6.561s3.008-6.561 6.706-6.561c3.698 0 6.706 2.943 6.706 6.561s-3.008 6.561-6.706 6.561zM24.35 4.701c-1.391 0-2.522 1.107-2.522 2.468s1.131 2.468 2.522 2.468c1.391 0 2.523-1.107 2.523-2.468s-1.132-2.468-2.523-2.468zm0 3.145c-.382 0-.692-.304-.692-.677s.311-.677.692-.677c.382 0 .692.304.692.677s-.311.677-.692.677z"/>
    </symbol>
    <symbol id="icon-installation" viewBox="0 0 33 32">
      <path stroke-linecap="round" stroke-linejoin="round" stroke-width="1.829" d="M28.367 27.333c-.254.248-.555.445-.887.579a2.794 2.794 0 0 1-2.092 0 2.734 2.734 0 0 1-.887-.579l-7.116-6.947a9.193 9.193 0 0 1-6.091.733c-1.822-.414-3.463-1.38-4.689-2.759s-1.975-3.101-2.139-4.921a8.384 8.384 0 0 1 .888-4.627l5.941 5.853 3.414-.667.683-3.333-5.996-5.76a8.963 8.963 0 0 1 9.779 1.181 8.634 8.634 0 0 1 2.826 4.578 8.6 8.6 0 0 1-.751 5.893l7.115 6.947c.262.249.471.546.613.875a2.62 2.62 0 0 1 0 2.078 2.68 2.68 0 0 1-.613.875z"/>
    </symbol>
    <symbol id="icon-quotes" viewBox="0 0 32 32">
      <path d="M7.024 12.792a6.993 6.993 0 1 1-6.993 6.993L0 18.786C0 11.062 6.262 4.8 13.986 4.8v3.996a9.925 9.925 0 0 0-7.064 2.926c-.363.363-.695.75-.994 1.156a7.068 7.068 0 0 1 1.096-.086zm17.983 0a6.993 6.993 0 1 1-6.993 6.993l-.031-.999c0-7.724 6.262-13.986 13.986-13.986v3.996a9.925 9.925 0 0 0-7.064 2.926c-.363.363-.695.75-.994 1.156a7.068 7.068 0 0 1 1.096-.086z"/>
    </symbol>
    <symbol id="icon-speed" viewBox="0 0 33 32">
      <path stroke-linecap="round" stroke-linejoin="round" stroke-width="1.829" d="M28.865 17.333c-.003 1.791-.416 3.56-1.21 5.175s-1.948 3.036-3.378 4.159H8.871c-1.62-1.272-2.883-2.923-3.671-4.801s-1.076-3.92-.836-5.935c.24-2.016.999-3.939 2.207-5.59s2.825-2.976 4.7-3.852a12.55 12.55 0 0 1 11.864.679c1.757 1.083 3.205 2.584 4.207 4.362s1.526 3.774 1.523 5.804z"/>
      <path stroke-linecap="round" stroke-linejoin="round" stroke-width="1.829" d="m22.036 12-5.463 8m1.366 0c0 .264-.08.521-.23.741s-.363.39-.613.491c-.25.101-.524.127-.789.076s-.508-.178-.699-.365c-.191-.186-.321-.424-.374-.683s-.026-.527.078-.77c.103-.244.278-.452.503-.598s.489-.225.759-.225c.362 0 .71.14.966.391s.4.589.4.943z"/>
    </symbol>
    <symbol id="icon-support" viewBox="0 0 33 32">
      <path stroke-linecap="round" stroke-linejoin="round" stroke-width="1.829" d="M16.798 28c6.788 0 12.292-5.373 12.292-12S23.587 4 16.798 4 4.506 9.373 4.506 16s5.503 12 12.292 12z"/>
      <path stroke-linecap="round" stroke-linejoin="round" stroke-width="1.829" d="M16.798 9.333V16l2.731 4"/>
    </symbol>
    <symbol id="icon-whatsapp" viewBox="0 0 31 32">
      <path d="M26.785 5.068C23.925 2.27 20.124.73 16.08.73h-.001c-2 0-3.95.379-5.793 1.126S6.79 3.684 5.375 5.068C2.516 7.866.941 11.585.941 15.542c0 2.359.582 4.704 1.684 6.793L.08 29.448a1.342 1.342 0 0 0 .332 1.423 1.408 1.408 0 0 0 1.455.325l7.27-2.489a15.452 15.452 0 0 0 6.944 1.648c4.044 0 7.846-1.541 10.705-4.338S31.22 19.5 31.22 15.543s-1.575-7.676-4.434-10.474zM25.49 24.749c-2.514 2.459-5.856 3.814-9.41 3.814a13.58 13.58 0 0 1-6.248-1.522 1.44 1.44 0 0 0-1.125-.085l-6.605 2.262 2.312-6.462c.129-.36.097-.762-.087-1.101a12.825 12.825 0 0 1-1.556-6.112c0-3.478 1.384-6.748 3.898-9.207s5.855-3.813 9.409-3.814h.001c3.555 0 6.897 1.354 9.411 3.814s3.898 5.729 3.898 9.207c0 3.478-1.384 6.748-3.898 9.207z"/>
      <path d="M21.706 16.865a1.817 1.817 0 0 0-2.526 0l-.762.745a10.975 10.975 0 0 1-4.453-4.356l.762-.745a1.723 1.723 0 0 0 0-2.472l-2.053-2.008a1.817 1.817 0 0 0-2.526 0L8.506 9.635c-.941.92-.987 2.502-.132 4.455.743 1.695 2.102 3.559 3.827 5.246s3.63 3.018 5.363 3.744c.948.398 1.811.596 2.556.596.823 0 1.504-.242 1.997-.725l1.642-1.606a1.719 1.719 0 0 0 0-2.472l-2.053-2.009zm-.884 4.82c-.268.263-1.094.355-2.537-.25-1.524-.639-3.225-1.834-4.789-3.364s-2.786-3.194-3.439-4.685c-.619-1.412-.524-2.22-.256-2.482l1.611-1.576 1.989 1.947-.953.933a1.346 1.346 0 0 0-.259 1.592 12.782 12.782 0 0 0 5.674 5.551 1.42 1.42 0 0 0 1.627-.253l.953-.933 1.99 1.947-1.611 1.576z"/>
    </symbol>
    <symbol id="icon-vector" viewBox="0 0 40 32">
      <path d="M33.782 1.02a3.668 3.668 0 0 1 5.115.039 3.712 3.712 0 0 1 .135 5.141L19.454 30.817a3.674 3.674 0 0 1-4.074.914 3.675 3.675 0 0 1-1.226-.815L1.17 17.862A3.693 3.693 0 0 1-.001 15.22a3.714 3.714 0 0 1 1.077-2.682 3.664 3.664 0 0 1 4.1-.763 3.68 3.68 0 0 1 1.195.857l10.275 10.325 17.042-21.83c.031-.038.063-.074.098-.109h-.005z"/>
    </symbol>
  </defs>
</svg>
